{
.appVersion = "3343";
.formatVersion = 3;
axes = (
{
name = Width;
tag = wdth;
}
);
date = "2024-01-16 17:52:19 +0000";
familyName = Turquoise;
fontMaster = (
{
axesValues = (
0
);
id = m01;
metricValues = (
{
over = 16;
pos = 805;
},
{
over = 7;
pos = 770;
},
{
over = 7;
pos = 490;
},
{
over = -7;
},
{
over = -16;
pos = -210;
}
);
name = Regular;
stemValues = (
70
);
userData = {
GSCornerRadius = 120;
GSOffsetHorizontal = 6;
GSOffsetVertical = 6;
};
},
{
axesValues = (
100
);
iconName = Extended;
id = "68D5BACD-5E21-43AF-A87F-8AE685111708";
metricValues = (
{
over = 16;
pos = 805;
},
{
over = 7;
pos = 770;
},
{
over = 16;
pos = 490;
},
{
over = 7;
},
{
over = -16;
pos = -210;
}
);
name = WIDE;
stemValues = (
0
);
userData = {
GSCornerRadius = 6;
GSOffsetHorizontal = 6;
GSOffsetVertical = 6;
};
}
);
glyphs = (
{
glyphname = A;
lastChange = "2025-10-03 19:55:21 +0000";
layers = (
{
layerId = m01;
shapes = (
{
closed = 1;
nodes = (
(10,0,l),
(90,0,l),
(99,135,l),
(176,135,l),
(185,0,l),
(265,0,l),
(205,770,l),
(70,770,l)
);
},
{
closed = 1;
nodes = (
(135,665,l),
(140,665,l),
(171,210,l),
(104,210,l)
);
}
);
width = 275;
},
{
layerId = "68D5BACD-5E21-43AF-A87F-8AE685111708";
shapes = (
{
closed = 1;
nodes = (
(0,0,l),
(95,0,l),
(160,135,l),
(690,135,l),
(755,0,l),
(850,0,l),
(485,770,l),
(365,770,l)
);
},
{
closed = 1;
nodes = (
(420,690,l),
(430,690,l),
(655,210,l),
(195,210,l)
);
}
);
width = 850;
}
);
unicode = (65,97);
},
{
glyphname = B;
lastChange = "2025-10-03 19:55:21 +0000";
layers = (
{
layerId = m01;
shapes = (
{
closed = 1;
nodes = (
(40,0,l),
(160,0,ls),
(260,0,o),
(280,60,o),
(280,100,cs),
(280,300,ls),
(280,335,o),
(275,380,o),
(240,385,c),
(275,390,o),
(280,430,o),
(280,470,cs),
(280,670,ls),
(280,713,o),
(275,770,o),
(160,770,cs),
(40,770,l)
);
},
{
closed = 1;
nodes = (
(120,350,l),
(160,350,l),
(193,350,o),
(200,330,o),
(200,305,cs),
(200,145,ls),
(200,87,o),
(190,75,o),
(160,75,cs),
(120,75,l)
);
},
{
closed = 1;
nodes = (
(120,695,l),
(160,695,ls),
(195,695,o),
(200,680,o),
(200,620,cs),
(200,470,ls),
(200,441,o),
(195,425,o),
(160,425,c),
(120,425,l)
);
}
);
width = 320;
},
{
layerId = "68D5BACD-5E21-43AF-A87F-8AE685111708";
shapes = (
{
closed = 1;
nodes = (
(20,0,l),
(775,0,l),
(830,0,o),
(870,50,o),
(870,105,c),
(870,340,l),
(870,361,o),
(855,390,o),
(830,395,c),
(855,400,o),
(870,433,o),
(870,455,c),
(870,685,l),
(870,736,o),
(828,770,o),
(775,770,c),
(20,770,l)
);
},
{
closed = 1;
nodes = (
(100,350,l),
(710,350,l),
(785,350,o),
(790,340,o),
(790,275,c),
(790,160,l),
(790,82,o),
(775,75,o),
(710,75,c),
(100,75,l)
);
},
{
closed = 1;
nodes = (
(100,695,l),
(710,695,l),
(783,695,o),
(790,685,o),
(790,620,c),
(790,515,l),
(790,430,o),
(773,425,o),
(710,425,c),
(100,425,l)
);
}
);
width = 890;
}
);
unicode = (66,98);
},
{
glyphname = C;
lastChange = "2025-10-03 19:55:21 +0000";
layers = (
{
layerId = m01;
shapes = (
{
closed = 1;
nodes = (
(130,770,ls),
(81,770,o),
(35,730,o),
(35,675,cs),
(35,95,ls),
(35,40,o),
(80,0,o),
(130,0,cs),
(240,0,l),
(240,75,l),
(175,75,ls),
(125,75,o),
(115,79,o),
(115,145,cs),
(115,625,ls),
(115,691,o),
(126,695,o),
(175,695,cs),
(225,695,l),
(225,770,l)
);
}
);
width = 240;
},
{
layerId = "68D5BACD-5E21-43AF-A87F-8AE685111708";
shapes = (
{
closed = 1;
nodes = (
(305,770,ls),
(93,770,o),
(20,674,o),
(20,475,cs),
(20,295,ls),
(20,95,o),
(92,-1,o),
(305,0,cs),
(870,0,l),
(870,75,l),
(305,75,ls),
(173,76,o),
(100,136,o),
(100,295,cs),
(100,475,ls),
(100,633,o),
(174,695,o),
(305,695,cs),
(870,695,l),
(870,770,l)
);
}
);
width = 890;
}
);
unicode = (67,99);
},
{
glyphname = D;
lastChange = "2025-10-03 19:55:21 +0000";
layers = (
{
layerId = m01;
shapes = (
{
closed = 1;
nodes = (
(160,0,ls),
(265,0,o),
(280,59,o),
(280,100,cs),
(280,670,ls),
(280,713,o),
(265,770,o),
(160,770,cs),
(40,770,l),
(40,0,l)
);
},
{
closed = 1;
nodes = (
(120,695,l),
(160,695,ls),
(195,695,o),
(200,685,o),
(200,625,cs),
(200,145,ls),
(200,90,o),
(195,75,o),
(160,75,cs),
(120,75,l)
);
}
);
width = 320;
},
{
layerId = "68D5BACD-5E21-43AF-A87F-8AE685111708";
shapes = (
{
closed = 1;
nodes = (
(585,0,ls),
(799,-1,o),
(870,97,o),
(870,295,cs),
(870,490,ls),
(870,672,o),
(800,770,o),
(585,770,cs),
(20,770,l),
(20,0,l)
);
},
{
closed = 1;
nodes = (
(100,695,l),
(585,695,ls),
(719,695,o),
(790,631,o),
(790,490,cs),
(790,295,ls),
(790,138,o),
(718,76,o),
(585,75,cs),
(100,75,l)
);
}
);
width = 890;
}
);
unicode = (68,100);
},
{
glyphname = E;
lastChange = "2025-10-03 19:55:21 +0000";
layers = (
{
layerId = m01;
shapes = (
{
closed = 1;
nodes = (
(40,770,l),
(40,0,l),
(225,0,l),
(225,75,l),
(120,75,l),
(120,350,l),
(210,350,l),
(210,425,l),
(120,425,l),
(120,695,l),
(225,695,l),
(225,770,l)
);
}
);
width = 235;
},
{
layerId = "68D5BACD-5E21-43AF-A87F-8AE685111708";
shapes = (
{
closed = 1;
nodes = (
(20,770,l),
(20,0,l),
(680,0,l),
(680,75,l),
(100,75,l),
(100,350,l),
(645,350,l),
(645,425,l),
(100,425,l),
(100,695,l),
(680,695,l),
(680,770,l)
);
}
);
width = 700;
}
);
unicode = (69,101);
},
{
glyphname = F;
lastChange = "2025-10-03 19:55:21 +0000";
layers = (
{
layerId = m01;
shapes = (
{
closed = 1;
nodes = (
(40,770,l),
(40,0,l),
(120,0,l),
(120,350,l),
(210,350,l),
(210,425,l),
(120,425,l),
(120,695,l),
(225,695,l),
(225,770,l)
);
}
);
width = 235;
},
{
layerId = "68D5BACD-5E21-43AF-A87F-8AE685111708";
shapes = (
{
closed = 1;
nodes = (
(20,770,l),
(20,0,l),
(100,0,l),
(100,350,l),
(645,350,l),
(645,425,l),
(100,425,l),
(100,695,l),
(680,695,l),
(680,770,l)
);
}
);
width = 700;
}
);
unicode = (70,102);
},
{
glyphname = G;
lastChange = "2025-10-03 19:55:21 +0000";
layers = (
{
background = {
shapes = (
{
closed = 0;
nodes = (
(280,390,ls),
(280,444,o),
(234,485,o),
(185,485,cs),
(155,485,l),
(155,405,l),
(189,405,o),
(200,405,o),
(200,340,cs)
);
}
);
};
layerId = m01;
shapes = (
{
closed = 1;
nodes = (
(135,770,ls),
(86,770,o),
(40,730,o),
(40,675,cs),
(40,95,ls),
(40,40,o),
(85,0,o),
(135,0,cs),
(280,0,l),
(280,485,l),
(245,485,o),
(210,485,o),
(176,485,c),
(155,485,l),
(155,410,l),
(175,410,l),
(185,410,o),
(190,410,o),
(200,410,c),
(200,75,l),
(180,75,ls),
(130,75,o),
(120,79,o),
(120,145,cs),
(120,625,ls),
(120,691,o),
(131,695,o),
(180,695,cs),
(270,695,l),
(270,770,l)
);
}
);
width = 320;
},
{
layerId = "68D5BACD-5E21-43AF-A87F-8AE685111708";
shapes = (
{
closed = 1;
nodes = (
(305,770,ls),
(94,770,o),
(20,689,o),
(20,490,cs),
(20,295,ls),
(20,95,o),
(92,0,o),
(305,0,cs),
(870,0,l),
(870,410,ls),
(870,463,o),
(815,505,o),
(765,505,cs),
(615,505,l),
(615,430,l),
(710,430,ls),
(784,430,o),
(790,422,o),
(790,345,cs),
(790,75,l),
(305,75,ls),
(173,75,o),
(100,136,o),
(100,295,cs),
(100,490,ls),
(100,648,o),
(174,695,o),
(305,695,cs),
(870,695,l),
(870,770,l)
);
}
);
width = 890;
}
);
unicode = (71,103);
},
{
glyphname = H;
lastChange = "2025-10-03 19:55:21 +0000";
layers = (
{
layerId = m01;
shapes = (
{
closed = 1;
nodes = (
(40,0,l),
(120,0,l),
(120,350,l),
(200,350,l),
(200,0,l),
(280,0,l),
(280,770,l),
(200,770,l),
(200,425,l),
(120,425,l),
(120,770,l),
(40,770,l)
);
}
);
width = 320;
},
{
layerId = "68D5BACD-5E21-43AF-A87F-8AE685111708";
shapes = (
{
closed = 1;
nodes = (
(20,0,l),
(100,0,l),
(100,350,l),
(790,350,l),
(790,0,l),
(870,0,l),
(870,770,l),
(790,770,l),
(790,425,l),
(100,425,l),
(100,770,l),
(20,770,l)
);
}
);
width = 890;
}
);
unicode = (72,104);
},
{
glyphname = I;
lastChange = "2025-10-03 19:55:21 +0000";
layers = (
{
layerId = m01;
shapes = (
{
closed = 1;
nodes = (
(40,0,l),
(120,0,l),
(120,770,l),
(40,770,l)
);
}
);
width = 160;
},
{
layerId = "68D5BACD-5E21-43AF-A87F-8AE685111708";
shapes = (
{
closed = 1;
nodes = (
(20,0,l),
(100,0,l),
(100,770,l),
(20,770,l)
);
}
);
width = 120;
}
);
unicode = (73,105);
},
{
glyphname = J;
lastChange = "2025-10-03 19:55:21 +0000";
layers = (
{
background = {
shapes = (
{
closed = 1;
nodes = (
(245,0,o),
(260,60,o),
(260,100,cs),
(260,770,l),
(180,770,l),
(180,135,l),
(180,90,o),
(170,75,o),
(130,75,cs),
(85,75,l),
(85,0,l),
(140,0,l)
);
}
);
};
layerId = m01;
shapes = (
{
closed = 1;
nodes = (
(260,770,l),
(260,90,ls),
(260,50,o),
(245,-10,o),
(140,-10,c),
(140,-10,l),
(39,-10,o),
(21,36,o),
(20,125,c),
(20,135,l),
(100,135,l),
(100,125,l),
(101,80,o),
(107,65,o),
(140,65,c),
(140,65,l),
(175,65,o),
(180,80,o),
(180,135,cs),
(180,770,l)
);
}
);
width = 300;
},
{
associatedMasterId = m01;
layerId = "AB9172B4-0A24-4322-87AE-FDFC9F3F80F3";
name = "30. Jan 24 at 17:32";
shapes = (
{
closed = 1;
nodes = (
(160,0,o),
(175,60,o),
(175,100,cs),
(175,770,l),
(95,770,l),
(95,135,l),
(95,90,o),
(85,75,o),
(45,75,cs),
(0,75,l),
(0,0,l),
(55,0,l)
);
}
);
width = 215;
},
{
layerId = "68D5BACD-5E21-43AF-A87F-8AE685111708";
shapes = (
{
closed = 1;
nodes = (
(870,770,l),
(870,285,ls),
(870,86,o),
(799,-11,o),
(585,-10,cs),
(305,-10,ls),
(92,-11,o),
(19,85,o),
(20,285,cs),
(20,505,l),
(100,505,l),
(100,285,ls),
(101,126,o),
(173,66,o),
(305,65,cs),
(585,65,ls),
(718,66,o),
(790,127,o),
(790,285,cs),
(790,770,l)
);
}
);
width = 890;
}
);
unicode = (74,106);
},
{
glyphname = K;
lastChange = "2025-10-03 19:55:21 +0000";
layers = (
{
layerId = m01;
shapes = (
{
closed = 1;
nodes = (
(30,0,l),
(110,0,l),
(110,350,l),
(130,350,l),
(210,0,l),
(295,0,l),
(200,385,l),
(290,770,l),
(205,770,l),
(130,425,l),
(110,425,l),
(110,770,l),
(30,770,l)
);
}
);
width = 295;
},
{
layerId = "68D5BACD-5E21-43AF-A87F-8AE685111708";
shapes = (
{
closed = 1;
nodes = (
(30,0,l),
(110,0,l),
(110,350,l),
(245,350,l),
(515,0,l),
(615,0,l),
(315,385,l),
(615,770,l),
(515,770,l),
(245,425,l),
(110,425,l),
(110,770,l),
(30,770,l)
);
}
);
width = 635;
}
);
unicode = (75,107);
},
{
glyphname = L;
lastChange = "2025-10-03 19:55:21 +0000";
layers = (
{
layerId = m01;
shapes = (
{
closed = 1;
nodes = (
(40,0,l),
(210,0,l),
(210,75,l),
(120,75,l),
(120,770,l),
(40,770,l)
);
}
);
width = 220;
},
{
layerId = "68D5BACD-5E21-43AF-A87F-8AE685111708";
shapes = (
{
closed = 1;
nodes = (
(20,0,l),
(525,0,l),
(525,75,l),
(100,75,l),
(100,770,l),
(20,770,l)
);
}
);
width = 545;
}
);
unicode = (76,108);
},
{
glyphname = M;
lastChange = "2025-10-03 19:55:21 +0000";
layers = (
{
background = {
shapes = (
{
closed = 0;
nodes = (
(165,350,l),
(320,350,l)
);
}
);
};
layerId = m01;
shapes = (
{
closed = 1;
nodes = (
(40,0,l),
(115,0,l),
(115,490,l),
(120,490,l),
(235,35,l),
(245,35,l),
(360,490,l),
(365,490,l),
(360,0,l),
(440,0,l),
(440,770,l),
(355,770,l),
(240,280,l),
(240,280,l),
(125,770,l),
(40,770,l)
);
}
);
width = 480;
},
{
layerId = "68D5BACD-5E21-43AF-A87F-8AE685111708";
shapes = (
{
closed = 1;
nodes = (
(20,0,l),
(100,0,l),
(100,630,l),
(105,630,l),
(460,0,l),
(520,0,l),
(875,630,l),
(880,630,l),
(880,0,l),
(960,0,l),
(960,770,l),
(865,770,l),
(495,125,l),
(485,125,l),
(115,770,l),
(20,770,l)
);
}
);
width = 980;
}
);
unicode = (77,109);
},
{
glyphname = N;
lastChange = "2025-10-03 19:55:21 +0000";
layers = (
{
layerId = m01;
shapes = (
{
closed = 1;
nodes = (
(35,0,l),
(105,0,l),
(105,505,l),
(110,505,l),
(220,0,l),
(305,0,l),
(305,770,l),
(230,770,l),
(235,260,l),
(230,260,l),
(120,770,l),
(35,770,l)
);
}
);
width = 340;
},
{
layerId = "68D5BACD-5E21-43AF-A87F-8AE685111708";
shapes = (
{
closed = 1;
nodes = (
(20,0,l),
(100,0,l),
(100,635,l),
(105,635,l),
(720,0,l),
(800,0,l),
(800,770,l),
(720,770,l),
(720,120,l),
(715,120,l),
(100,770,l),
(20,770,l)
);
}
);
width = 820;
}
);
unicode = (78,110);
},
{
glyphname = O;
lastChange = "2025-10-03 19:55:21 +0000";
layers = (
{
layerId = m01;
shapes = (
{
closed = 1;
nodes = (
(40,90,ls),
(40,51,o),
(55,-10,o),
(160,-10,c),
(160,-10,l),
(265,-10,o),
(280,50,o),
(280,90,cs),
(280,680,ls),
(280,717,o),
(265,780,o),
(160,780,c),
(160,780,l),
(55,780,o),
(40,718,o),
(40,680,cs)
);
},
{
closed = 1;
nodes = (
(120,635,ls),
(120,688,o),
(125,705,o),
(160,705,c),
(160,705,l),
(195,705,o),
(200,685,o),
(200,635,cs),
(200,135,ls),
(200,80,o),
(195,65,o),
(160,65,c),
(160,65,l),
(125,65,o),
(120,82,o),
(120,135,cs)
);
}
);
width = 320;
},
{
layerId = "68D5BACD-5E21-43AF-A87F-8AE685111708";
shapes = (
{
closed = 1;
nodes = (
(20,285,ls),
(20,85,o),
(90,-10,o),
(305,-10,cs),
(585,-10,ls),
(800,-10,o),
(870,85,o),
(870,285,cs),
(870,490,ls),
(870,685,o),
(800,785,o),
(585,785,cs),
(305,785,ls),
(95,785,o),
(20,690,o),
(20,490,cs)
);
},
{
closed = 1;
nodes = (
(100,490,ls),
(100,650,o),
(175,710,o),
(305,710,cs),
(585,710,ls),
(720,710,o),
(790,645,o),
(790,490,cs),
(790,285,ls),
(790,130,o),
(720,65,o),
(585,65,cs),
(305,65,ls),
(175,65,o),
(100,125,o),
(100,285,cs)
);
}
);
width = 890;
}
);
unicode = (79,111);
},
{
glyphname = P;
lastChange = "2025-10-03 19:55:21 +0000";
layers = (
{
background = {
shapes = (
{
closed = 1;
nodes = (
(280,675,ls),
(280,735,o),
(235,770,o),
(180,770,cs),
(40,770,l),
(40,0,l),
(120,0,l),
(120,355,l),
(180,355,ls),
(235,355,o),
(280,395,o),
(280,460,cs)
);
},
{
closed = 1;
nodes = (
(120,690,l),
(195,690,o),
(200,695,o),
(200,610,cs),
(200,515,ls),
(200,425,o),
(205,430,o),
(120,430,c)
);
}
);
};
layerId = m01;
shapes = (
{
closed = 1;
nodes = (
(40,0,l),
(120,0,l),
(120,350,l),
(180,350,ls),
(235,350,o),
(280,390,o),
(280,455,cs),
(280,675,ls),
(280,735,o),
(235,770,o),
(180,770,cs),
(40,770,l)
);
},
{
closed = 1;
nodes = (
(120,695,l),
(160,695,ls),
(195,695,o),
(200,680,o),
(200,620,cs),
(200,510,ls),
(200,435,o),
(195,425,o),
(165,425,c),
(120,425,l)
);
}
);
width = 290;
},
{
layerId = "68D5BACD-5E21-43AF-A87F-8AE685111708";
shapes = (
{
closed = 1;
nodes = (
(20,0,l),
(100,0,l),
(100,350,l),
(775,350,l),
(828,350,o),
(870,402,o),
(870,455,c),
(870,675,l),
(870,726,o),
(828,770,o),
(775,770,cs),
(20,770,l)
);
},
{
closed = 1;
nodes = (
(100,695,l),
(710,695,l),
(780,695,o),
(790,675,o),
(790,610,c),
(790,510,l),
(790,432,o),
(774,425,o),
(710,425,c),
(100,425,l)
);
}
);
width = 890;
}
);
unicode = (80,112);
},
{
glyphname = Q;
lastChange = "2025-10-03 19:55:21 +0000";
layers = (
{
background = {
shapes = (
{
closed = 1;
nodes = (
(40,95,l),
(40,54,o),
(55,-6,o),
(160,-5,c),
(160,-5,l),
(173,-5,o),
(189,-2,o),
(200,0,c),
(200,-140,l),
(360,-140,l),
(360,-65,l),
(280,-65,l),
(280,680,ls),
(280,716,o),
(260,780,o),
(160,780,c),
(160,780,l),
(55,780,o),
(40,717,o),
(40,680,cs)
);
},
{
closed = 1;
nodes = (
(120,197,o),
(125,220,o),
(160,220,c),
(160,220,l),
(195,220,o),
(200,192,o),
(200,145,c),
(200,140,l),
(200,91,o),
(195,70,o),
(160,70,c),
(160,70,l),
(126,70,o),
(120,88,o),
(120,141,c),
(120,145,l)
);
},
{
closed = 1;
nodes = (
(120,687,o),
(125,705,o),
(160,705,cs),
(195,705,o),
(200,687,o),
(200,635,cs),
(200,305,l),
(200,300,o),
(200,300,o),
(200,295,c),
(200,290,l),
(174,297,o),
(146,297,o),
(120,290,c),
(120,295,l),
(120,300,o),
(120,300,o),
(120,305,c),
(120,635,l)
);
}
);
};
layerId = m01;
shapes = (
{
closed = 1;
nodes = (
(40,90,ls),
(40,51,o),
(55,-10,o),
(160,-10,c),
(160,-10,l),
(265,-10,o),
(280,50,o),
(280,90,cs),
(280,680,ls),
(280,717,o),
(265,780,o),
(160,780,c),
(160,780,l),
(55,780,o),
(40,718,o),
(40,680,cs)
);
},
{
closed = 1;
nodes = (
(120,635,ls),
(120,688,o),
(125,705,o),
(160,705,c),
(160,705,l),
(195,705,o),
(200,685,o),
(200,635,cs),
(200,135,ls),
(200,80,o),
(195,65,o),
(160,65,c),
(160,65,l),
(125,65,o),
(120,82,o),
(120,135,cs)
);
},
{
closed = 1;
nodes = (
(40,210,l),
(200,210,l),
(200,-140,l),
(360,-140,l),
(360,-65,l),
(280,-65,l),
(280,285,l),
(40,285,l)
);
}
);
width = 320;
},
{
background = {
shapes = (
{
closed = 1;
nodes = (
(20,285,ls),
(20,85,o),
(92,-10,o),
(305,-10,cs),
(545,-10,l),
(545,-140,l),
(875,-140,l),
(875,-65,l),
(625,-65,l),
(625,-10,l),
(810,-10,o),
(870,101,o),
(870,285,cs),
(870,490,ls),
(870,687,o),
(800,785,o),
(585,785,cs),
(305,785,ls),
(93,785,o),
(20,689,o),
(20,490,cs)
);
},
{
closed = 1;
nodes = (
(100,648,o),
(174,710,o),
(305,710,cs),
(585,710,ls),
(719,710,o),
(790,646,o),
(790,490,cs),
(790,285,ls),
(790,144,o),
(730,70,o),
(625,70,c),
(625,170,ls),
(625,224,o),
(571,265,o),
(520,265,cs),
(290,265,ls),
(235,265,o),
(195,223,o),
(195,170,cs),
(195,85,l),
(133,117,o),
(100,178,o),
(100,285,cs),
(100,490,ls)
);
},
{
closed = 1;
nodes = (
(275,105,ls),
(275,183,o),
(282,190,o),
(355,190,cs),
(465,190,ls),
(540,190,o),
(545,183,o),
(545,105,cs),
(545,65,l),
(275,65,l)
);
}
);
};
layerId = "68D5BACD-5E21-43AF-A87F-8AE685111708";
shapes = (
{
closed = 1;
nodes = (
(20,285,ls),
(20,65,o),
(90,-10,o),
(305,-10,cs),
(585,-10,ls),
(800,-10,o),
(870,65,o),
(870,285,cs),
(870,490,ls),
(870,685,o),
(800,785,o),
(585,785,cs),
(305,785,ls),
(95,785,o),
(20,690,o),
(20,490,cs)
);
},
{
closed = 1;
nodes = (
(100,490,ls),
(100,650,o),
(175,710,o),
(305,710,cs),
(585,710,ls),
(720,710,o),
(790,645,o),
(790,490,cs),
(790,285,ls),
(790,105,o),
(720,65,o),
(585,65,cs),
(305,65,ls),
(175,65,o),
(100,100,o),
(100,285,cs)
);
},
{
closed = 1;
nodes = (
(80,210,l),
(545,210,l),
(545,-140,l),
(705,-140,l),
(705,-65,l),
(625,-65,l),
(625,285,l),
(80,285,l)
);
}
);
width = 895;
}
);
unicode = (81,113);
},
{
glyphname = R;
lastChange = "2025-10-03 19:55:21 +0000";
layers = (
{
layerId = m01;
shapes = (
{
closed = 1;
nodes = (
(40,0,l),
(120,0,l),
(120,350,l),
(150,350,l),
(220,0,l),
(305,0,l),
(225,360,l),
(225,360,l),
(257,376,o),
(280,410,o),
(280,455,cs),
(280,675,ls),
(280,735,o),
(235,770,o),
(180,770,cs),
(40,770,l)
);
},
{
closed = 1;
nodes = (
(120,695,l),
(160,695,ls),
(195,695,o),
(200,680,o),
(200,620,cs),
(200,510,ls),
(200,445,o),
(200,425,o),
(160,425,c),
(120,425,l)
);
}
);
width = 325;
},
{
layerId = "68D5BACD-5E21-43AF-A87F-8AE685111708";
shapes = (
{
closed = 1;
nodes = (
(20,0,l),
(100,0,l),
(100,350,l),
(635,350,l),
(795,0,l),
(885,0,l),
(730,350,l),
(775,350,ls),
(830,350,o),
(870,400,o),
(870,455,cs),
(870,675,ls),
(870,726,o),
(828,770,o),
(775,770,cs),
(20,770,l)
);
},
{
closed = 1;
nodes = (
(100,695,l),
(710,695,ls),
(780,695,o),
(790,675,o),
(790,610,cs),
(790,510,ls),
(790,432,o),
(774,425,o),
(710,425,cs),
(100,425,l)
);
}
);
width = 905;
}
);
unicode = (82,114);
},
{
glyphname = S;
lastChange = "2025-10-03 19:55:21 +0000";
layers = (
{
layerId = m01;
shapes = (
{
closed = 1;
nodes = (
(20,455,ls),
(20,383,o),
(75,350,o),
(120,350,c),
(125,350,l),
(165,350,o),
(170,334,o),
(170,275,cs),
(170,135,ls),
(170,88,o),
(162,75,o),
(130,75,c),
(40,75,l),
(40,0,l),
(130,0,l),
(235,0,o),
(250,58,o),
(250,100,cs),
(250,320,ls),
(250,383,o),
(230,425,o),
(160,425,c),
(155,425,l),
(120,425,o),
(100,423,o),
(100,500,cs),
(100,625,ls),
(100,675,o),
(105,695,o),
(140,695,c),
(245,695,l),
(245,770,l),
(140,770,l),
(35,767,o),
(20,705,o),
(20,670,cs)
);
}
);
width = 270;
},
{
associatedMasterId = m01;
layerId = "D5B2B278-5134-45F4-B3E0-37497607CD46";
name = "28. Jan 24 at 23:38";
shapes = (
{
closed = 1;
nodes = (
(40,369,o),
(95,350,o),
(135,350,cs),
(175,350,o),
(185,330,o),
(185,270,c),
(185,150,l),
(185,91,o),
(180,75,o),
(145,75,c),
(50,75,l),
(50,0,l),
(165,0,l),
(220,0,o),
(265,36,o),
(265,95,c),
(265,315,l),
(265,391,o),
(226,425,o),
(185,425,cs),
(140,425,o),
(120,424,o),
(120,495,c),
(120,620,l),
(120,681,o),
(125,695,o),
(175,695,c),
(255,695,l),
(255,770,l),
(140,770,l),
(85,770,o),
(40,736,o),
(40,675,c),
(40,435,ls)
);
}
);
width = 305;
},
{
associatedMasterId = m01;
layerId = "D00BCCE0-9FEF-4FE2-A072-76D78208BB1C";
name = "30. Jan 24 at 14:57";
shapes = (
{
closed = 1;
nodes = (
(140,340,o),
(155,315,o),
(155,280,c),
(155,150,l),
(155,90,o),
(120,75,o),
(100,75,c),
(30,75,l),
(30,0,l),
(120,0,l),
(175,0,o),
(235,44,o),
(235,105,c),
(235,320,ls),
(235,410,o),
(170,410,o),
(155,410,c),
(130,410,o),
(95,420,o),
(95,450,c),
(95,620,l),
(95,690,o),
(117,695,o),
(155,695,c),
(230,695,l),
(230,770,l),
(125,770,l),
(70,770,o),
(15,730,o),
(15,665,c),
(15,425,ls),
(15,359,o),
(60,340,o),
(105,340,cs)
);
}
);
width = 255;
},
{
associatedMasterId = m01;
background = {
shapes = (
{
closed = 1;
nodes = (
(140,340,o),
(155,315,o),
(155,280,c),
(155,150,l),
(155,90,o),
(120,75,o),
(100,75,c),
(30,75,l),
(30,0,l),
(120,0,l),
(175,0,o),
(235,44,o),
(235,105,c),
(235,320,ls),
(235,410,o),
(170,410,o),
(155,410,c),
(130,410,o),
(95,420,o),
(95,450,c),
(95,620,l),
(95,690,o),
(117,695,o),
(155,695,c),
(230,695,l),
(230,770,l),
(125,770,l),
(70,770,o),
(15,730,o),
(15,665,c),
(15,425,ls),
(15,359,o),
(60,340,o),
(105,340,cs)
);
}
);
};
layerId = "F9DA293D-70E0-4F09-924B-4F1BCA0F34D7";
name = "30. Jan 24 at 15:28";
shapes = (
{
closed = 1;
nodes = (
(175,689,o),
(170,705,o),
(135,705,cs),
(100,705,o),
(95,689,o),
(95,635,cs),
(95,500,ls),
(95,425,o),
(115,425,o),
(150,425,cs),
(195,425,o),
(245,389,o),
(245,320,cs),
(245,90,ls),
(245,52,o),
(230,-10,o),
(125,-10,cs),
(20,-10,o),
(5,52,o),
(5,90,cs),
(5,135,l),
(85,135,l),
(85,82,o),
(90,65,o),
(125,65,cs),
(160,65,o),
(165,82,o),
(165,135,cs),
(165,275,ls),
(165,340,o),
(145,350,o),
(115,350,cs),
(70,350,o),
(15,387,o),
(15,455,cs),
(15,680,ls),
(15,719,o),
(30,780,o),
(135,780,cs),
(240,780,o),
(255,719,o),
(255,680,cs),
(255,635,l),
(175,635,l)
);
},
{
closed = 1;
nodes = (
(620,705,l),
(615,705,o),
(510,705,o),
(505,705,cs),
(470,704,o),
(465,687,o),
(465,635,cs),
(465,500,ls),
(465,425,o),
(485,423,o),
(520,425,cs),
(565,423,o),
(615,387,o),
(615,320,cs),
(615,90,ls),
(615,50,o),
(600,-12,o),
(495,-10,cs),
(492,-10,o),
(395,-12,o),
(390,-10,c),
(390,65,l),
(395,63,o),
(490,65,o),
(495,65,cs),
(530,63,o),
(535,80,o),
(535,135,cs),
(535,275,ls),
(535,338,o),
(515,349,o),
(485,350,cs),
(440,349,o),
(385,385,o),
(385,455,cs),
(385,680,ls),
(385,717,o),
(400,779,o),
(505,780,cs),
(510,780,o),
(616,780,o),
(620,780,c)
);
}
);
width = 800;
},
{
layerId = "68D5BACD-5E21-43AF-A87F-8AE685111708";
shapes = (
{
closed = 1;
nodes = (
(20,455,ls),
(20,402,o),
(62,350,o),
(115,350,cs),
(705,350,ls),
(778,350,o),
(790,343,o),
(790,265,cs),
(790,160,ls),
(790,77,o),
(780,75,o),
(705,75,cs),
(20,75,l),
(20,0,l),
(775,0,ls),
(828,0,o),
(870,43,o),
(870,95,cs),
(870,330,ls),
(870,385,o),
(818,425,o),
(765,425,cs),
(185,425,ls),
(121,425,o),
(100,434,o),
(100,510,cs),
(100,610,ls),
(100,678,o),
(113,695,o),
(185,695,cs),
(860,695,l),
(860,770,l),
(115,770,ls),
(62,770,o),
(20,728,o),
(20,675,cs)
);
}
);
width = 890;
}
);
unicode = (83,115);
},
{
glyphname = T;
lastChange = "2025-10-03 19:55:21 +0000";
layers = (
{
layerId = m01;
shapes = (
{
closed = 1;
nodes = (
(-20,695,l),
(60,695,l),
(60,0,l),
(140,0,l),
(140,695,l),
(220,695,l),
(220,770,l),
(-20,770,l)
);
}
);
width = 200;
},
{
layerId = "68D5BACD-5E21-43AF-A87F-8AE685111708";
shapes = (
{
closed = 1;
nodes = (
(20,695,l),
(320,695,l),
(320,0,l),
(400,0,l),
(400,695,l),
(700,695,l),
(700,770,l),
(20,770,l)
);
}
);
width = 720;
}
);
unicode = (84,116);
},
{
glyphname = U;
lastChange = "2025-10-03 19:55:21 +0000";
layers = (
{
background = {
shapes = (
{
closed = 0;
nodes = (
(70,310,l)
);
},
{
closed = 0;
nodes = (
(140,310,l)
);
}
);
};
layerId = m01;
shapes = (
{
closed = 1;
nodes = (
(40,90,ls),
(40,50,o),
(55,-10,o),
(160,-10,c),
(160,-10,l),
(265,-10,o),
(280,51,o),
(280,90,cs),
(280,770,l),
(200,770,l),
(200,130,l),
(200,78,o),
(195,65,o),
(160,65,c),
(160,65,l),
(125,65,o),
(120,75,o),
(120,130,c),
(120,770,l),
(40,770,l)
);
}
);
width = 320;
},
{
background = {
shapes = (
{
closed = 0;
nodes = (
(60,310,l)
);
},
{
closed = 0;
nodes = (
(130,310,l)
);
}
);
};
layerId = "68D5BACD-5E21-43AF-A87F-8AE685111708";
shapes = (
{
closed = 1;
nodes = (
(20,285,ls),
(20,85,o),
(92,-10,o),
(305,-10,cs),
(585,-10,ls),
(799,-10,o),
(870,86,o),
(870,285,cs),
(870,770,l),
(790,770,l),
(790,285,ls),
(790,127,o),
(718,65,o),
(585,65,cs),
(305,65,ls),
(173,65,o),
(100,126,o),
(100,285,cs),
(100,770,l),
(20,770,l)
);
}
);
width = 890;
}
);
unicode = (85,117);
},
{
glyphname = V;
lastChange = "2025-10-03 19:55:21 +0000";
layers = (
{
layerId = m01;
shapes = (
{
closed = 1;
nodes = (
(70,0,l),
(205,0,l),
(265,770,l),
(185,770,l),
(140,105,l),
(135,105,l),
(90,770,l),
(10,770,l)
);
}
);
width = 275;
},
{
layerId = "68D5BACD-5E21-43AF-A87F-8AE685111708";
shapes = (
{
closed = 1;
nodes = (
(365,0,l),
(485,0,l),
(850,770,l),
(755,770,l),
(430,80,l),
(420,80,l),
(95,770,l),
(0,770,l)
);
}
);
width = 850;
}
);
unicode = (86,118);
},
{
glyphname = W;
lastChange = "2025-10-03 19:55:21 +0000";
layers = (
{
layerId = m01;
shapes = (
{
closed = 1;
nodes = (
(130,0,l),
(220,0,l),
(270,305,l),
(275,305,l),
(315,0,l),
(410,0,l),
(555,770,l),
(475,770,l),
(370,175,l),
(365,175,l),
(325,395,l),
(390,770,l),
(310,770,l),
(275,485,l),
(270,485,l),
(225,770,l),
(145,770,l),
(220,395,l),
(175,180,l),
(170,180,l),
(70,770,l),
(-10,770,l)
);
}
);
vertWidth = 0;
width = 540;
},
{
layerId = "68D5BACD-5E21-43AF-A87F-8AE685111708";
shapes = (
{
closed = 1;
nodes = (
(365,0,l),
(485,0,l),
(600,240,l),
(605,240,l),
(715,0,l),
(835,0,l),
(1200,770,l),
(1105,770,l),
(780,80,l),
(770,80,l),
(653,328,l),
(860,770,l),
(765,770,l),
(605,430,l),
(600,430,l),
(445,770,l),
(350,770,l),
(554,340,l),
(430,80,l),
(420,80,l),
(95,770,l),
(0,770,l)
);
}
);
width = 1200;
}
);
unicode = (87,119);
},
{
glyphname = X;
lastChange = "2025-10-03 19:55:21 +0000";
layers = (
{
layerId = m01;
shapes = (
{
closed = 1;
nodes = (
(80,390,l),
(80,380,l),
(0,0,l),
(80,0,l),
(125,295,l),
(135,295,l),
(175,0,l),
(255,0,l),
(180,380,l),
(180,390,l),
(250,770,l),
(170,770,l),
(135,475,l),
(125,475,l),
(80,770,l),
(0,770,l)
);
}
);
width = 255;
},
{
layerId = "68D5BACD-5E21-43AF-A87F-8AE685111708";
shapes = (
{
closed = 1;
nodes = (
(325,390,l),
(325,380,l),
(0,0,l),
(105,0,l),
(375,325,l),
(385,325,l),
(645,0,l),
(750,0,l),
(430,380,l),
(430,390,l),
(750,770,l),
(645,770,l),
(385,450,l),
(375,450,l),
(115,770,l),
(10,770,l)
);
}
);
width = 750;
},
{
associatedMasterId = "68D5BACD-5E21-43AF-A87F-8AE685111708";
layerId = "59A91340-0D28-4661-AE3D-11B32E4BB973";
name = "30. Jan 24 at 22:14";
shapes = (
{
closed = 1;
nodes = (
(750,0,l),
(110,770,l),
(10,770,l),
(650,0,l)
);
},
{
closed = 1;
nodes = (
(100,0,l),
(405,365,l),
(355,425,l),
(0,0,l)
);
},
{
closed = 1;
nodes = (
(750,770,l),
(650,770,l),
(370,430,l),
(420,375,l)
);
}
);
width = 750;
}
);
unicode = (88,120);
},
{
glyphname = Y;
lastChange = "2025-10-03 19:55:21 +0000";
layers = (
{
layerId = m01;
shapes = (
{
closed = 1;
nodes = (
(85,365,l),
(85,0,l),
(165,0,l),
(165,365,l),
(255,770,l),
(175,770,l),
(130,480,l),
(125,480,l),
(80,770,l),
(0,770,l)
);
}
);
width = 255;
},
{
layerId = "68D5BACD-5E21-43AF-A87F-8AE685111708";
shapes = (
{
closed = 1;
nodes = (
(350,365,l),
(350,0,l),
(430,0,l),
(430,365,l),
(760,770,l),
(655,770,l),
(395,455,l),
(385,455,l),
(125,770,l),
(20,770,l)
);
}
);
width = 780;
},
{
associatedMasterId = "68D5BACD-5E21-43AF-A87F-8AE685111708";
layerId = "525D3165-0FF0-4B03-BA98-5B2FF2F02823";
name = "30. Jan 24 at 22:17";
shapes = (
{
closed = 1;
nodes = (
(455,335,l),
(10,770,l),
(105,770,l),
(505,385,l)
);
},
{
closed = 1;
nodes = (
(805,770,l),
(900,770,l),
(455,335,l),
(405,385,l)
);
},
{
closed = 1;
nodes = (
(420,0,l),
(490,0,l),
(490,390,l),
(420,390,l)
);
}
);
width = 910;
}
);
unicode = (89,121);
},
{
glyphname = Z;
lastChange = "2025-10-03 19:55:21 +0000";
layers = (
{
layerId = m01;
shapes = (
{
closed = 1;
nodes = (
(15,695,l),
(130,695,l),
(130,695,l),
(0,0,l),
(0,0,l),
(195,0,l),
(195,75,l),
(95,75,l),
(95,75,l),
(225,770,l),
(225,770,l),
(15,770,l)
);
}
);
width = 225;
},
{
background = {
shapes = (
{
closed = 1;
nodes = (
(75,0,l),
(75,255,ls),
(75,342,o),
(98,345,o),
(165,345,cs),
(760,345,l),
(810,345,o),
(850,395,o),
(850,445,cs),
(850,770,l),
(785,770,l),
(785,500,ls),
(785,420,o),
(760,410,o),
(695,410,cs),
(100,410,l),
(45,410,o),
(10,367,o),
(10,310,cs),
(10,0,l)
);
},
{
closed = 1;
nodes = (
(850,0,l),
(850,65,l),
(10,65,l),
(10,0,l)
);
},
{
closed = 1;
nodes = (
(850,705,l),
(850,770,l),
(10,770,l),
(10,705,l)
);
}
);
};
layerId = "68D5BACD-5E21-43AF-A87F-8AE685111708";
shapes = (
{
closed = 1;
nodes = (
(25,695,l),
(625,695,l),
(625,690,l),
(20,75,l),
(20,0,l),
(745,0,l),
(745,75,l),
(130,75,l),
(130,80,l),
(750,695,l),
(750,770,l),
(25,770,l)
);
}
);
width = 770;
}
);
unicode = (90,122);
},
{
glyphname = period;
lastChange = "2024-04-11 02:36:04 +0000";
layers = (
{
layerId = m01;
shapes = (
{
closed = 1;
nodes = (
(110,0,l),
(110,105,l),
(30,105,l),
(30,0,l)
);
}
);
width = 140;
},
{
layerId = "68D5BACD-5E21-43AF-A87F-8AE685111708";
shapes = (
{
closed = 1;
nodes = (
(100,0,l),
(100,105,l),
(20,105,l),
(20,0,l)
);
}
);
width = 120;
}
);
unicode = 46;
},
{
glyphname = comma;
lastChange = "2024-04-11 02:36:04 +0000";
layers = (
{
layerId = m01;
shapes = (
{
closed = 1;
nodes = (
(90,-20,l),
(110,105,l),
(30,105,l),
(10,-20,l)
);
}
);
width = 110;
},
{
layerId = "68D5BACD-5E21-43AF-A87F-8AE685111708";
shapes = (
{
closed = 1;
nodes = (
(90,-20,l),
(110,105,l),
(30,105,l),
(10,-20,l)
);
}
);
width = 105;
}
);
unicode = 44;
},
{
glyphname = colon;
lastChange = "2024-04-11 02:36:04 +0000";
layers = (
{
layerId = m01;
shapes = (
{
closed = 1;
nodes = (
(100,385,l),
(100,490,l),
(20,490,l),
(20,385,l)
);
},
{
closed = 1;
nodes = (
(100,0,l),
(100,105,l),
(20,105,l),
(20,0,l)
);
}
);
width = 120;
},
{
layerId = "68D5BACD-5E21-43AF-A87F-8AE685111708";
shapes = (
{
closed = 1;
nodes = (
(100,385,l),
(100,490,l),
(20,490,l),
(20,385,l)
);
},
{
closed = 1;
nodes = (
(100,0,l),
(100,105,l),
(20,105,l),
(20,0,l)
);
}
);
width = 120;
}
);
unicode = 58;
},
{
glyphname = exclam;
lastChange = "2024-04-11 02:36:04 +0000";
layers = (
{
layerId = m01;
shapes = (
{
closed = 1;
nodes = (
(110,175,l),
(110,770,l),
(30,770,l),
(30,175,l)
);
},
{
closed = 1;
nodes = (
(110,0,l),
(110,105,l),
(30,105,l),
(30,0,l)
);
}
);
width = 140;
},
{
layerId = "68D5BACD-5E21-43AF-A87F-8AE685111708";
shapes = (
{
closed = 1;
nodes = (
(110,175,l),
(110,770,l),
(30,770,l),
(30,175,l)
);
},
{
closed = 1;
nodes = (
(110,0,l),
(110,105,l),
(30,105,l),
(30,0,l)
);
}
);
width = 140;
}
);
unicode = 33;
},
{
glyphname = question;
lastChange = "2024-04-12 13:16:26 +0000";
layers = (
{
background = {
shapes = (
{
closed = 1;
nodes = (
(40,695,l),
(55,695,l),
(65,695,o),
(80,695,o),
(90,695,c),
(110,695,ls),
(158,696,o),
(165,692,o),
(165,630,cs),
(165,425,l),
(65,425,l),
(65,175,l),
(145,175,l),
(145,350,l),
(245,350,l),
(245,670,ls),
(245,728,o),
(197,771,o),
(145,770,cs),
(90,770,l),
(80,770,o),
(65,770,o),
(55,770,c),
(40,770,l)
);
},
{
closed = 1;
nodes = (
(65,0,l),
(145,0,l),
(145,105,l),
(65,105,l)
);
}
);
};
layerId = m01;
shapes = (
{
closed = 1;
nodes = (
(105,175,l),
(105,350,l),
(245,350,l),
(245,675,ls),
(245,733,o),
(197,775,o),
(145,775,cs),
(75,775,ls),
(22,775,o),
(-25,741,o),
(-25,640,cs),
(-25,635,l),
(55,635,l),
(55,640,ls),
(55,681,o),
(57,700,o),
(105,700,cs),
(115,700,ls),
(165,700,o),
(165,680,o),
(165,635,cs),
(165,425,l),
(25,425,l),
(25,175,l)
);
},
{
closed = 1;
nodes = (
(105,0,l),
(105,105,l),
(25,105,l),
(25,0,l)
);
}
);
width = 285;
},
{
layerId = "68D5BACD-5E21-43AF-A87F-8AE685111708";
shapes = (
{
closed = 1;
nodes = (
(460,175,l),
(460,355,l),
(870,355,l),
(870,480,ls),
(870,677,o),
(800,775,o),
(585,775,cs),
(305,775,ls),
(93,775,o),
(20,679,o),
(20,480,cs),
(20,360,l),
(100,360,l),
(100,480,ls),
(100,638,o),
(174,700,o),
(305,700,cs),
(585,700,ls),
(719,700,o),
(790,636,o),
(790,480,cs),
(790,430,l),
(380,430,l),
(380,175,l)
);
},
{
closed = 1;
nodes = (
(460,0,l),
(460,105,l),
(380,105,l),
(380,0,l)
);
}
);
width = 910;
}
);
unicode = 63;
},
{
glyphname = hyphen;
lastChange = "2024-04-11 02:36:04 +0000";
layers = (
{
layerId = m01;
shapes = (
{
closed = 1;
nodes = (
(20,265,l),
(235,265,l),
(235,340,l),
(20,340,l)
);
}
);
width = 255;
},
{
layerId = "68D5BACD-5E21-43AF-A87F-8AE685111708";
shapes = (
{
closed = 1;
nodes = (
(20,265,l),
(235,265,l),
(235,340,l),
(20,340,l)
);
}
);
width = 255;
}
);
unicode = 45;
},
{
glyphname = emdash;
lastChange = "2024-04-11 02:36:04 +0000";
layers = (
{
layerId = m01;
shapes = (
{
closed = 1;
nodes = (
(20,265,l),
(565,265,l),
(565,340,l),
(20,340,l)
);
}
);
width = 585;
},
{
layerId = "68D5BACD-5E21-43AF-A87F-8AE685111708";
shapes = (
{
closed = 1;
nodes = (
(20,265,l),
(565,265,l),
(565,340,l),
(20,340,l)
);
}
);
width = 585;
}
);
unicode = 8212;
},
{
glyphname = parenleft;
lastChange = "2024-04-12 18:31:57 +0000";
layers = (
{
layerId = m01;
shapes = (
{
closed = 1;
nodes = (
(115,805,ls),
(67,807,o),
(20,767,o),
(20,710,cs),
(20,60,ls),
(20,7,o),
(66,-33,o),
(115,-35,cs),
(225,-35,l),
(225,40,l),
(160,40,ls),
(111,42,o),
(100,46,o),
(100,110,cs),
(100,660,ls),
(100,728,o),
(112,732,o),
(160,730,cs),
(210,730,l),
(210,805,l)
);
}
);
width = 245;
},
{
layerId = "68D5BACD-5E21-43AF-A87F-8AE685111708";
shapes = (
{
closed = 1;
nodes = (
(115,805,ls),
(67,807,o),
(20,767,o),
(20,710,cs),
(20,60,ls),
(20,7,o),
(66,-33,o),
(115,-35,cs),
(225,-35,l),
(225,40,l),
(160,40,ls),
(111,42,o),
(100,46,o),
(100,110,cs),
(100,660,ls),
(100,728,o),
(112,732,o),
(160,730,cs),
(210,730,l),
(210,805,l)
);
}
);
width = 245;
}
);
unicode = 40;
},
{
glyphname = parenright;
lastChange = "2024-04-12 18:31:28 +0000";
layers = (
{
layerId = m01;
shapes = (
{
closed = 1;
nodes = (
(35,730,l),
(85,730,ls),
(133,732,o),
(145,728,o),
(145,660,cs),
(145,110,ls),
(145,46,o),
(134,42,o),
(85,40,cs),
(20,40,l),
(20,-35,l),
(130,-35,ls),
(179,-33,o),
(225,7,o),
(225,60,cs),
(225,710,ls),
(225,767,o),
(178,807,o),
(130,805,cs),
(35,805,l)
);
}
);
width = 245;
},
{
layerId = "68D5BACD-5E21-43AF-A87F-8AE685111708";
shapes = (
{
closed = 1;
nodes = (
(35,730,l),
(85,730,ls),
(133,732,o),
(145,728,o),
(145,660,cs),
(145,110,ls),
(145,46,o),
(134,42,o),
(85,40,cs),
(20,40,l),
(20,-35,l),
(130,-35,ls),
(179,-33,o),
(225,7,o),
(225,60,cs),
(225,710,ls),
(225,767,o),
(178,807,o),
(130,805,cs),
(35,805,l)
);
}
);
width = 245;
}
);
unicode = 41;
},
{
glyphname = quotedbl;
lastChange = "2024-04-11 02:36:04 +0000";
layers = (
{
layerId = m01;
shapes = (
{
closed = 1;
nodes = (
(235,525,l),
(235,805,l),
(155,805,l),
(155,525,l)
);
},
{
closed = 1;
nodes = (
(100,525,l),
(100,805,l),
(20,805,l),
(20,525,l)
);
}
